<?xml version="1.0" encoding="UTF-8" standalone="no"?><!DOCTYPE svg PUBLIC "-//W3C//DTD SVG 1.1//EN" "http://www.w3.org/Graphics/SVG/1.1/DTD/svg11.dtd"><svg width="100%" height="100%" viewBox="0 0 2084 2084" version="1.1" xmlns="http://www.w3.org/2000/svg" xmlns:xlink="http://www.w3.org/1999/xlink" xml:space="preserve" xmlns:serif="http://www.serif.com/" style="fill-rule:evenodd;clip-rule:evenodd;stroke-linejoin:round;stroke-miterlimit:2;"><g id="OBJECTS"></g><rect id="Plan-de-travail1" serif:id="Plan de travail1" x="0" y="0" width="2083.33" height="2083.33" style="fill:none;"/><g><g id="Plume"><path d="M374.769,510.95c-31.628,23.217 -75.145,30.534 -118.783,20.713l95.056,61.846l-1.872,2.893l0.048,0.025c9.822,-14.538 27.398,-19.935 39.602,-11.986c12.205,7.901 14.368,26.183 5.057,41.061l49.181,31.993l46.677,-71.741l-114.966,-74.804Z" style="fill:#fff;fill-rule:nonzero;stroke:#131313;stroke-width:8.33px;"/><path d="M393.561,626.11c-9.748,14.976 -27.665,20.616 -40.04,12.544c-12.35,-8.022 -14.465,-26.693 -4.716,-41.668l-2.261,3.452l-94.982,-61.798c26.669,35.931 37.609,78.694 29.221,117.056l114.942,74.78l47.041,-72.349l-0.073,-0.048l0.365,-0.584l-49.181,-31.993l-0.316,0.608Z" style="fill:#fff;fill-rule:nonzero;stroke:#131313;stroke-width:8.33px;"/><path d="M782.514,759.669l-288.695,-187.869l-0.68,1.046l-0.001,-0.001l-6.299,9.684l-46.285,71.15l0.004,0.002l-56.041,86.155l288.676,187.894l-17.999,27.67l338.673,220.401l73.345,-112.754l0.001,0.001l70.575,-108.499l-338.674,-220.399l-16.6,25.519Z" style="fill:#131313;fill-rule:nonzero;stroke:#131313;stroke-width:8.33px;"/></g><g id="Stylo"><path d="M332.468,1599.22l-32.285,25.89l-7.147,-8.873l32.309,-25.891l7.123,8.874Z" style="fill:#131313;fill-rule:nonzero;stroke:#131313;stroke-width:8.33px;"/><path d="M562.845,1418.85l-247.03,186.306c47.139,38.873 241.382,-77.016 263.165,-93.548l35.98,-23.661l0.024,0.031l186.537,-122.721l452.351,-341.129c22.438,-16.896 16.628,-62.43 -12.885,-101.546c-0,0 -7.293,-9.675 -7.293,-9.675l-0.001,-0l-9.821,-13.029c-29.586,-39.24 -71.717,-57.278 -94.131,-40.358l-450.407,339.67l-171.488,146.74l54.999,72.92Z" style="fill:#131313;fill-rule:nonzero;stroke:#131313;stroke-width:8.33px;"/><path d="M569.248,1414.52l-55.494,-73.57l-46.118,39.407c-22.05,16.605 -184.713,167.964 -153.596,223.076c27.82,27.82 118.674,-10.244 186.715,-45.884l0.619,-0.324l0.338,-0.178l0.265,-0.139l0.474,-0.25c38.022,-19.987 68.622,-39.05 76.529,-45.047l42.471,-27.884l-52.196,-69.213l-0.007,0.006Z" style="fill:#fff;fill-rule:nonzero;stroke:#131313;stroke-width:8.33px;"/></g><g id="Crayon-2" serif:id="Crayon 2"><path d="M1160.37,1766.63l-235.499,-0.025l117.762,218.19l117.737,-218.165Z" style="fill:#fff;fill-rule:nonzero;stroke:#131313;stroke-width:8.33px;"/><path d="M1002.84,1911.4l39.797,73.395l39.821,-73.395l-79.618,0Z" style="fill:#131313;fill-rule:nonzero;stroke:#131313;stroke-width:8.33px;"/><path d="M1042.97,1237.84l0,529.61l-117.737,0l0,-529.61l117.737,-0Zm117.033,-0.146l0.024,529.61l-116.765,-0.024l0,-529.586l116.741,-0Z" style="fill:#131313;fill-rule:nonzero;stroke:#131313;stroke-width:8.33px;"/></g><g id="Pinceau"><path d="M1829.89,1575.74c0,0 11.038,-113.385 -20.372,-158.409c-31.385,-44.999 -64.521,-79.423 -125.833,-68.97c-61.263,10.478 -91.457,145.379 -91.457,145.379c0,-0 38.436,75.291 106.724,58.856c68.265,-16.458 104.172,-30.558 130.938,23.144Z" style="fill:#131313;fill-rule:nonzero;stroke:#131313;stroke-width:8.33px;"/><path d="M1799.24,1436.37c6.127,33.257 -12.131,-11.402 -46.773,2.333c-34.668,13.785 30.631,12.958 38.192,42.447c8.8,34.4 2.577,8.703 -33.33,-4.109c-35.883,-12.836 2.601,13.396 7.852,17.99c5.227,4.571 -16.896,0.681 -45.631,14.83c-28.711,14.076 32.211,1.045 40.161,6.199l0.194,0.122c1.702,0.462 1.702,1.021 0,-0c-4.594,-1.337 -21.831,-1.848 -51.879,34.181c62.431,-15.365 96.32,-25.867 121.87,25.38c0,0 11.038,-113.385 -20.372,-158.409c-11.766,-16.823 -23.752,-32.212 -37.366,-44.294c13.858,27.763 25.016,52.268 27.082,63.33Z" style="fill:#fff;fill-rule:nonzero;stroke:#131313;stroke-width:8.33px;"/><path d="M1361.14,1276.76l-3.092,-2.009l68.961,-99.241l259.347,168.765l-65.44,101.252l-0.302,-0.197l-26.298,40.434l-259.372,-168.741l26.196,-40.263Z" style="fill:#fff;fill-rule:nonzero;stroke:#131313;stroke-width:8.33px;"/><path d="M1564.71,1466.44l91.482,-140.614l13.03,8.46l-91.505,140.614l-13.007,-8.46Z" style="fill:#131313;fill-rule:nonzero;"/><path d="M1340.56,1319.43l-491.103,-347.596l32.115,-49.324l32.09,-49.354l516.799,308.091l-44.975,69.116l-44.926,69.067Z" style="fill:#131313;fill-rule:nonzero;stroke:#131313;stroke-width:8.33px;"/></g><g id="Crayon-1" serif:id="Crayon 1"><path d="M1532.93,526.655l163.976,203.554l106.579,-253.683l-270.555,50.129Z" style="fill:#fff;fill-rule:nonzero;stroke:#131313;stroke-width:8.33px;"/><path d="M1767.75,562.002l35.737,-85.476l-91.166,16.677l55.429,68.799Z" style="fill:#131313;fill-rule:nonzero;stroke:#131313;stroke-width:8.33px;"/><path d="M1615.37,627.544l-466.621,375.87c45.023,55.623 126.586,64.326 182.331,19.424c3.938,-3.161 10.575,-7.95 19.278,-14.027l346.988,-279.475l-81.976,-101.792Zm-81.733,-100.938l-369.743,297.856c-51.855,45.656 -59.124,124.374 -15.364,178.733l466.378,-375.675l-81.271,-100.914Z" style="fill:#131313;fill-rule:nonzero;stroke:#131313;stroke-width:8.33px;"/></g><g id="Marqueur"><path d="M909.387,868.683l0,-483.298l134.609,0.024l0,-0.024l135.484,-0l0,483.298l-270.093,0Z" style="fill:#fff;fill-rule:nonzero;stroke:#131313;stroke-width:8.33px;"/><path d="M1076.11,187.665l-61.239,-0.024l0.049,-53.314l8.969,-5.117l0.001,-0.158l53.752,-30.51l-1.532,89.123Z" style="fill:#fff;fill-rule:nonzero;stroke:#131313;stroke-width:8.33px;"/><path d="M1044.65,174.586l-0,-0.073l39.14,-0c-0.292,4.522 -0.413,9.116 -0.437,13.784c-0,84.65 42.519,154.106 96.805,161.594l0,17.941l0.243,0l0.024,17.553l-0.267,-0l0,26.28l-135.265,-0l-0,0.048l-135.509,0l0,-61.725c54.287,-7.512 96.806,-76.992 96.806,-161.618c0,-4.643 -0.17,-9.238 -0.413,-13.784l38.873,-0Z" style="fill:#131313;fill-rule:nonzero;stroke:#131313;stroke-width:8.33px;"/></g><g id="Rond"><path d="M1280.69,1042.48c0,131.57 -106.627,238.197 -238.197,238.197c-131.57,0 -238.197,-106.627 -238.197,-238.197c-0,-131.568 106.627,-238.197 238.197,-238.197c131.57,-0 238.197,106.629 238.197,238.197Z" style="fill:#fff;fill-rule:nonzero;"/><path d="M1042.49,791.861c-138.182,0 -250.62,112.437 -250.62,250.62c0,138.207 112.438,250.62 250.62,250.62c138.183,-0 250.62,-112.413 250.62,-250.62c0,-138.183 -112.437,-250.62 -250.62,-250.62Zm0,12.423c131.57,-0 238.197,106.629 238.197,238.197c0,131.57 -106.627,238.197 -238.197,238.197c-131.57,0 -238.197,-106.627 -238.197,-238.197c-0,-131.568 106.627,-238.197 238.197,-238.197Z" style="fill:#131313;fill-rule:nonzero;"/><path d="M1144.13,1042.48c-0,56.134 -45.51,101.643 -101.644,101.643c-56.133,0 -101.643,-45.509 -101.643,-101.643c-0,-56.134 45.51,-101.641 101.643,-101.641c56.134,0 101.644,45.507 101.644,101.641Z" style="fill:#131313;fill-rule:nonzero;"/></g></g></svg>