<?xml version="1.0" encoding="UTF-8" standalone="no"?><!DOCTYPE svg PUBLIC "-//W3C//DTD SVG 1.1//EN" "http://www.w3.org/Graphics/SVG/1.1/DTD/svg11.dtd"><svg width="100%" height="100%" viewBox="0 0 2084 2084" version="1.1" xmlns="http://www.w3.org/2000/svg" xmlns:xlink="http://www.w3.org/1999/xlink" xml:space="preserve" xmlns:serif="http://www.serif.com/" style="fill-rule:evenodd;clip-rule:evenodd;stroke-linejoin:round;stroke-miterlimit:2;"><g id="OBJECTS"></g><rect id="Plan-de-travail1" serif:id="Plan de travail1" x="0" y="0" width="2083.33" height="2083.33" style="fill:none;"/><g><path d="M1928.3,890.051c-2.314,0 -109.522,-22.433 -109.522,-22.433c-101.344,-45.214 -214.673,-95.509 -327.533,-120.399c-28.609,-6.311 -57.115,-11.787 -85.48,-14.196c-34.967,-2.966 -234.881,-11.21 -336.483,-3.956c-101.603,7.261 -169.23,18.477 -204.197,31.343c-34.966,12.859 -313.385,154.708 -316.357,156.689c-2.972,1.982 -9.731,4.621 -9.731,4.621c0,0 -215.412,22.923 -268.192,42.058c-52.786,19.136 -113.979,52.949 -124.864,62.51c-10.884,9.568 -26.227,40.246 -29.362,52.624c-3.135,12.363 -3.135,17.317 -3.135,17.317c0,-0 -12.696,9.398 -13.361,15.003c-0.658,5.612 -3.298,40.246 0.333,72.248c3.63,32.001 7.919,44.534 7.919,44.534c-0,0 -7.587,3.624 -4.289,13.857c3.298,10.226 45.193,25.066 84.781,29.355c39.588,4.288 72.573,8.577 72.573,8.577l6.928,0c0,0 1.812,12.37 3.794,11.882c1.981,-0.495 23.417,-3.793 23.417,-3.793l266.218,-2.151l18.47,-8.571l855.382,-3.63l27.706,3.298l265.885,-36.29l25.732,7.26c-0,0 146.144,-25.399 174.508,-32.985c28.371,-7.586 45.526,-32.001 47.175,-34.309c1.648,-2.307 6.27,-6.595 7.918,-12.865c1.649,-6.27 -5.197,-14.345 -5.197,-14.345c-0,-0 3.053,-72.167 -0.408,-77.446c-3.467,-5.279 -18.973,-16.822 -24.245,-36.283c-5.279,-19.462 -1.323,-57.733 -9.568,-87.746c-8.251,-30.021 -4.288,-45.526 -8.746,-53.112c-4.452,-7.587 -8.069,-8.666 -8.069,-8.666Z" style="fill:#131313;stroke:#131313;stroke-width:8.33px;"/><path d="M1060.02,937.26c-223.617,10.219 -436.56,19.427 -436.248,17.697c0.659,-3.631 12.866,-26.715 52.78,-57.401c39.92,-30.678 144.156,-91.044 212.773,-113.477c59.009,-19.292 136.074,-27.36 208.322,-29.864l-37.627,183.045Z" style="fill:#fff;"/><path d="M1569.05,868.697c1.655,2.47 6.106,4.614 6.765,13.191c0.658,8.577 -6.928,30.353 -8.74,31.174c-0.855,0.386 -209.862,10.49 -430.887,20.696c3.766,-37.925 13.952,-136.312 18.321,-180.493c79.041,-0.089 178.35,3.929 211.172,9.045c35.951,5.612 99.289,33.976 127.66,49.814c28.371,15.831 75.709,56.573 75.709,56.573Z" style="fill:#fff;"/><path d="M1897.28,990.921c1.167,1.283 33.569,-3.576 52.874,-6.501c-0.827,-11.108 -2.219,-22.331 -5.035,-32.591c-5.361,-19.516 -5.564,-32.898 -6.277,-41.956c-1.825,0.346 -3.447,0.671 -4.288,0.882c-2.64,0.665 -3.963,2.809 -15.506,12.702c-11.549,9.894 -42.058,24.904 -44.039,27.876c-1.981,2.966 20.622,37.77 22.271,39.588Z" style="fill:#fff;"/><path d="M134.672,1040.67c-8.184,12.947 -15.96,29.83 -18.091,38.245c-1.872,7.41 -2.626,12.16 -2.931,14.772c8.842,-1.038 20.262,-2.47 29.81,-3.142c18.803,-1.316 34.634,6.929 38.264,7.261c3.631,0.326 73.232,-65.319 70.266,-69.934c-2.972,-4.621 -26.722,-2.639 -63.67,0.659c-21.938,1.954 -41.434,7.756 -53.648,12.139Z" style="fill:#fff;"/><path d="M143.622,1190c-5.442,-3.461 -26.064,-4.452 -26.064,-4.452c0,0 -1.316,2.477 -0.495,5.117c0.828,2.633 16.659,47.826 24.578,52.284c7.919,4.451 49.319,6.928 51.13,6.263c1.819,-0.658 -43.706,-55.745 -49.149,-59.212Z" style="fill:#fff;"/><path d="M621.439,929.062c15.173,-15.831 42.934,-28.038 55.114,-31.506c12.181,-3.46 23.397,67.138 18.118,72.418c-5.279,5.272 -79.834,25.724 -89.728,12.533c-9.893,-13.198 16.496,-53.445 16.496,-53.445Z" style="fill:#131313;"/><path d="M424.205,1357.17c74.494,-0 135.253,-60.759 135.253,-135.253c0,-74.494 -60.759,-135.253 -135.253,-135.253c-74.493,-0 -135.253,60.759 -135.253,135.253c0,74.494 60.76,135.253 135.253,135.253Z" style="fill:#131313;"/><path d="M424.205,1326.4c57.537,-0 104.48,-46.93 104.48,-104.48c-0,-57.543 -46.943,-104.48 -104.48,-104.48c-57.549,0 -104.479,46.937 -104.479,104.48c-0,57.55 46.93,104.48 104.479,104.48Z" style="fill:#fff;"/><path d="M424.205,1313.63c50.506,-0 91.71,-41.196 91.71,-91.709c-0,-50.506 -41.204,-91.709 -91.71,-91.709c-50.513,-0 -91.709,41.203 -91.709,91.709c0,50.513 41.196,91.709 91.709,91.709Z" style="fill:#131313;"/><path d="M502.56,1174.25c-5.815,17.521 -20.384,27.666 -37.186,32.327c14.352,-17.989 21.179,-36.269 18.41,-60.345c-9.235,-6.107 -25.175,-15.546 -37.878,-13.429c8.279,16.503 5.144,33.983 -3.447,49.156c-2.565,-22.868 -10.667,-40.626 -29.647,-55.691c-10.85,2.212 -28.792,6.813 -36.276,17.297c17.52,5.809 27.665,20.384 32.327,37.186c-17.989,-14.352 -36.277,-21.179 -60.352,-18.41c-6.108,9.236 -15.54,25.175 -13.423,37.878c16.497,-8.278 33.977,-5.143 49.156,3.44c-22.868,2.572 -40.626,10.674 -55.69,29.654c2.212,10.85 6.813,28.792 17.29,36.277c5.815,-17.521 20.391,-27.659 37.192,-32.321c-14.358,17.982 -21.178,36.27 -18.409,60.346c9.235,6.107 25.175,15.539 37.878,13.422c-8.279,-16.496 -5.144,-33.976 3.44,-49.156c2.565,22.868 10.674,40.626 29.654,55.691c10.85,-2.213 28.791,-6.814 36.276,-17.291c-17.521,-5.815 -27.665,-20.391 -32.334,-37.192c17.996,14.358 36.283,21.185 60.359,18.41c6.101,-9.229 15.539,-25.175 13.422,-37.878c-16.503,8.278 -33.983,5.143 -49.162,-3.441c22.875,-2.565 40.626,-10.667 55.697,-29.653c-2.212,-10.844 -6.82,-28.786 -17.297,-36.277Z" style="fill:#fff;"/><path d="M424.205,1241.71c10.905,-0 19.794,-8.89 19.794,-19.794c0,-10.898 -8.889,-19.787 -19.794,-19.787c-10.904,-0 -19.794,8.889 -19.794,19.787c0,10.904 8.89,19.794 19.794,19.794Z" style="fill:#131313;"/><path d="M1595.94,1357.17c74.494,-0 135.254,-60.759 135.254,-135.253c-0,-74.494 -60.76,-135.253 -135.254,-135.253c-74.493,-0 -135.246,60.759 -135.246,135.253c-0,74.494 60.753,135.253 135.246,135.253Z" style="fill:#131313;"/><path d="M1595.94,1326.4c57.55,-0 104.48,-46.93 104.48,-104.48c0,-57.543 -46.93,-104.48 -104.48,-104.48c-57.543,0 -104.48,46.937 -104.48,104.48c0,57.55 46.937,104.48 104.48,104.48Z" style="fill:#fff;"/><path d="M1595.94,1313.63c50.513,-0 91.709,-41.196 91.709,-91.709c0,-50.506 -41.196,-91.709 -91.709,-91.709c-50.513,-0 -91.709,41.203 -91.709,91.709c0,50.513 41.196,91.709 91.709,91.709Z" style="fill:#131313;"/><path d="M1674.3,1174.25c-5.815,17.521 -20.391,27.666 -37.193,32.327c14.359,-17.989 21.185,-36.269 18.41,-60.345c-9.229,-6.107 -25.168,-15.546 -37.878,-13.429c8.279,16.503 5.144,33.983 -3.44,49.156c-2.565,-22.868 -10.668,-40.626 -29.654,-55.691c-10.844,2.212 -28.792,6.813 -36.276,17.297c17.521,5.809 27.665,20.384 32.327,37.186c-17.989,-14.352 -36.27,-21.179 -60.346,-18.41c-6.107,9.236 -15.539,25.175 -13.428,37.878c16.502,-8.278 33.982,-5.143 49.155,3.44c-22.868,2.572 -40.626,10.674 -55.69,29.654c2.212,10.85 6.812,28.792 17.29,36.277c5.815,-17.521 20.391,-27.659 37.192,-32.321c-14.351,17.982 -21.178,36.27 -18.409,60.346c9.235,6.107 25.175,15.539 37.878,13.422c-8.279,-16.496 -5.144,-33.976 3.44,-49.156c2.572,22.868 10.674,40.626 29.653,55.691c10.851,-2.213 28.793,-6.814 36.277,-17.291c-17.521,-5.815 -27.659,-20.391 -32.32,-37.192c17.982,14.358 36.269,21.185 60.345,18.41c6.107,-9.229 15.54,-25.175 13.422,-37.878c-16.496,8.278 -33.976,5.143 -49.156,-3.441c22.875,-2.565 40.627,-10.667 55.691,-29.653c-2.212,-10.844 -6.813,-28.786 -17.29,-36.277Z" style="fill:#fff;"/><path d="M1595.94,1241.71c10.905,-0 19.794,-8.89 19.794,-19.794c0,-10.898 -8.889,-19.787 -19.794,-19.787c-10.898,-0 -19.793,8.889 -19.793,19.787c-0,10.904 8.895,19.794 19.793,19.794Z" style="fill:#131313;"/><path d="M1491.25,747.219c-0.4,-0.082 -7.912,2.727 3.4,7.525c26.084,11.088 319.289,136.244 324.133,112.874c-105.965,-47.27 -213.506,-96.697 -327.533,-120.399Z" style="fill:#fff;"/></g></svg>