<?xml version="1.0" encoding="UTF-8" standalone="no"?><!DOCTYPE svg PUBLIC "-//W3C//DTD SVG 1.1//EN" "http://www.w3.org/Graphics/SVG/1.1/DTD/svg11.dtd"><svg width="100%" height="100%" viewBox="0 0 512 512" version="1.1" xmlns="http://www.w3.org/2000/svg" xmlns:xlink="http://www.w3.org/1999/xlink" xml:space="preserve" xmlns:serif="http://www.serif.com/" style="fill-rule:evenodd;clip-rule:evenodd;stroke-linejoin:round;stroke-miterlimit:2;"><rect id="Plan-de-travail1" serif:id="Plan de travail1" x="0" y="0" width="512" height="512" style="fill:none;"/><g id="Plan-de-travail11" serif:id="Plan de travail1"><path d="M296.102,85.191c0,-0 3.956,-16.617 -25.32,-30.858c0,-0 -24.526,-7.915 -45.89,-1.585l14.244,2.376c-0,-0 -21.362,-1.582 -34.023,4.744l8.705,0.789c0,-0 -12.661,3.961 -20.573,10.288l3.959,2.373c-0,0 -11.868,7.123 -15.826,14.244l7.912,-3.165l-11.074,17.403l9.491,-5.533c0,0 -12.656,8.7 -13.449,20.57l6.329,-4.749l-5.536,12.661l7.909,-4.752l-4.744,10.287c-0,0 5.538,22.15 -4.75,33.229c0,0 -5.535,70.417 16.617,90.198l7.121,24.526l3.165,-5.538c-0,0 17.405,31.649 17.405,15.824l15.823,23.735c0,-0 -11.867,140.043 15.033,114.721c-0,-0 7.12,28.485 26.111,20.57c-0,0 21.361,34.814 43.514,-4.747c-0,0 6.329,-16.612 5.538,-31.644c-0,0 11.87,-19.784 4.747,-49.057c-0,-0 18.197,-41.934 3.164,-86.24c0,0 15.033,9.497 2.374,-61.713c-0,-0 7.912,-57.755 -40.349,-81.487c-0,-0 -16.615,-3.168 -6.33,-22.158c0,-0 9.492,-3.162 5.538,6.334l-3.958,7.912c-0,-0 7.912,0.789 11.87,-15.032c0,-0 3.165,-11.076 -4.747,-24.526Z" style="fill:#c8b6ff;fill-rule:nonzero;"/></g></svg>