<?xml version="1.0" encoding="UTF-8" standalone="no"?><!DOCTYPE svg PUBLIC "-//W3C//DTD SVG 1.1//EN" "http://www.w3.org/Graphics/SVG/1.1/DTD/svg11.dtd"><svg width="100%" height="100%" viewBox="0 0 2084 2084" version="1.1" xmlns="http://www.w3.org/2000/svg" xmlns:xlink="http://www.w3.org/1999/xlink" xml:space="preserve" xmlns:serif="http://www.serif.com/" style="fill-rule:evenodd;clip-rule:evenodd;stroke-linejoin:round;stroke-miterlimit:2;"><g id="OBJECTS"></g><rect id="Plan-de-travail1" serif:id="Plan de travail1" x="0" y="0" width="2083.33" height="2083.33" style="fill:none;"/><g><path d="M963.621,859.276l-285.153,-0l60.67,-523.283c-0,-130.681 105.937,-237.371 236.618,-237.371l0,1.135l-12.135,759.519Z" style="fill:#fff;fill-rule:nonzero;stroke:#000;stroke-width:8.33px;"/><path d="M1740.72,1619.72l0.001,0.004l-77.934,44.746l37.091,163.56c4.893,21.581 29.272,32.271 48.461,21.253l96.727,-55.539l0.001,0.001l92.339,-53.014c19.189,-11.025 22.249,-37.468 6.077,-52.571l-122.559,-114.491l-80.204,46.051Z" style="fill:#fff;fill-rule:nonzero;stroke:#000;stroke-width:8.33px;"/><path d="M1843.34,1514.52l1.391,0l-12.135,74.322l-213.368,122.097l-79.235,-171.017l0,79.403l-9.689,5.123l-335.058,0.486c-60.718,-43.484 -77.57,-61.877 -166.389,-61.877l-197.348,-0c-75.827,-0 -83.191,12.669 -140.181,45.505l-27.548,15.164l-312.932,-0l-0,-109.205l-127.408,0l0,-60.669l1619.9,0l0,60.668Zm-1664.02,-166.477c-31.763,-4.06 -49.917,-6.436 -49.917,-6.436l12.129,-81.904l384.625,46.233c229.771,26.771 460.889,64.639 692.214,65.004l615.871,7.072l12.136,75.839l-619.301,0c-109.36,0 -346.76,-23.278 -572.878,-48.631l0,48.631l-430.759,0.001l-44.12,-105.809Z" style="fill-rule:nonzero;"/><path d="M1722,1748.1c-0,130.681 -105.937,236.613 -236.613,236.613c-130.681,-0 -236.618,-105.932 -236.618,-236.613c-0,-130.681 105.937,-236.612 236.618,-236.612c130.676,-0 236.613,105.931 236.613,236.612" style="fill:#fff;fill-rule:nonzero;stroke:#000;stroke-width:8.33px;"/><path d="M1691.67,1748.1c-0,113.926 -92.358,206.278 -206.278,206.278c-113.926,-0 -206.284,-92.352 -206.284,-206.278c-0,-113.926 92.358,-206.278 206.284,-206.278c113.92,0 206.278,92.352 206.278,206.278" style="fill:none;fill-rule:nonzero;stroke:#000;stroke-width:4.17px;"/><path d="M1614.11,1748.1c-0,71.093 -57.628,128.72 -128.721,128.72c-71.092,0 -128.726,-57.627 -128.726,-128.72c-0,-71.092 57.634,-128.72 128.726,-128.72c71.093,-0 128.721,57.628 128.721,128.72" style="fill:#fff;fill-rule:nonzero;stroke:#131313;stroke-width:8.33px;"/><path d="M1579.43,1748.1c0,51.934 -42.105,94.039 -94.039,94.039c-51.94,0 -94.039,-42.105 -94.039,-94.039c-0,-51.934 42.099,-94.039 94.039,-94.039c51.934,-0 94.039,42.105 94.039,94.039" style="fill:none;fill-rule:nonzero;stroke:#131313;stroke-width:8.33px;"/><path d="M1445.19,1817.87l-40.199,-69.769l40.199,-69.776l80.399,0l40.199,69.776l-40.199,69.769l-80.399,-0Z" style="fill:none;fill-rule:nonzero;stroke:#000;stroke-width:8.33px;"/><path d="M1530.89,1748.1c-0,25.132 -20.373,45.505 -45.505,45.505c-25.126,0 -45.499,-20.373 -45.499,-45.505c-0,-25.132 20.373,-45.505 45.499,-45.505c25.132,0 45.505,20.373 45.505,45.505" style="fill:none;fill-rule:nonzero;stroke:#000;stroke-width:8.33px;"/><path d="M606.067,1748.1c0,130.681 -105.937,236.613 -236.612,236.613c-130.681,-0 -236.619,-105.932 -236.619,-236.613c0,-130.681 105.938,-236.612 236.619,-236.612c130.675,-0 236.612,105.931 236.612,236.612" style="fill:#fff;fill-rule:nonzero;stroke:#000;stroke-width:8.33px;"/><path d="M575.732,1748.1c-0,113.926 -92.358,206.278 -206.278,206.278c-113.926,-0 -206.284,-92.352 -206.284,-206.278c0,-113.926 92.358,-206.278 206.284,-206.278c113.92,0 206.278,92.352 206.278,206.278" style="fill:none;fill-rule:nonzero;stroke:#000;stroke-width:4.17px;"/><path d="M498.174,1748.1c-0,71.093 -57.628,128.72 -128.721,128.72c-71.092,0 -128.72,-57.627 -128.72,-128.72c0,-71.092 57.628,-128.72 128.72,-128.72c71.093,-0 128.721,57.628 128.721,128.72" style="fill:#fff;fill-rule:nonzero;stroke:#131313;stroke-width:8.33px;"/><path d="M463.491,1748.1c0,51.934 -42.105,94.039 -94.039,94.039c-51.933,0 -94.039,-42.105 -94.039,-94.039c0,-51.934 42.106,-94.039 94.039,-94.039c51.934,-0 94.039,42.105 94.039,94.039" style="fill:none;fill-rule:nonzero;stroke:#131313;stroke-width:8.33px;"/><path d="M329.252,1817.87l-40.199,-69.769l40.199,-69.776l80.399,0l40.199,69.776l-40.199,69.769l-80.399,-0Z" style="fill:none;fill-rule:nonzero;stroke:#000;stroke-width:8.33px;"/><path d="M414.955,1748.1c-0,25.132 -20.373,45.505 -45.505,45.505c-25.126,0 -45.499,-20.373 -45.499,-45.505c-0,-25.132 20.373,-45.505 45.499,-45.505c25.132,0 45.505,20.373 45.505,45.505" style="fill:none;fill-rule:nonzero;stroke:#000;stroke-width:8.33px;"/><path d="M246.869,409.176c0.054,-33.455 22.285,-62.794 54.465,-71.925l490.119,-138.997c24.46,-7.806 50.116,-2.454 69.101,12.297c10.425,8.101 18.839,19.035 23.937,32.182l34.632,209.374c35.343,213.677 101.112,402.745 287.873,512.428c186.645,109.616 383.344,137.924 442.028,147.952c40.187,6.866 76.113,31.931 103.885,65.295c35.647,42.828 54.478,97.19 55.929,152.893l1.159,44.297l-489.367,9.149c-107.837,1.991 -215.687,-3.339 -322.802,-15.948l-846.34,-105.706c-13.665,-151.692 6.01,-292.401 57.64,-435.691c24.537,-68.088 37.176,-139.848 37.352,-212.221c0.152,-60.22 0.304,-148.316 0.389,-205.379" style="fill:#fff;fill-rule:nonzero;"/><clipPath id="_clip1"><path d="M246.869,409.176c0.054,-33.455 22.285,-62.794 54.465,-71.925l490.119,-138.997c24.46,-7.806 50.116,-2.454 69.101,12.297c10.425,8.101 18.839,19.035 23.937,32.182l34.632,209.374c35.343,213.677 101.112,402.745 287.873,512.428c186.645,109.616 383.344,137.924 442.028,147.952c40.187,6.866 76.113,31.931 103.885,65.295c35.647,42.828 54.478,97.19 55.929,152.893l1.159,44.297l-489.367,9.149c-107.837,1.991 -215.687,-3.339 -322.802,-15.948l-846.34,-105.706c-13.665,-151.692 6.01,-292.401 57.64,-435.691c24.537,-68.088 37.176,-139.848 37.352,-212.221c0.152,-60.22 0.304,-148.316 0.389,-205.379" clip-rule="nonzero"/></clipPath><g clip-path="url(#_clip1)"><path d="M47.496,1303.53l0,-372.241l163.808,-192.054l0,1.918c0,166.692 89.304,322.663 233.061,407.038l104.463,61.312c57.634,33.831 105.014,82.232 137.583,140.425l-638.915,-46.398Z" style="fill:#fff;fill-rule:nonzero;stroke:#000;stroke-width:8.33px;"/><path d="M1580.18,1037.42l379.069,62.822l-73.023,305.356l-673.317,26.024l21.089,-21.744c84.15,-86.773 191.563,-143.624 310.631,-164.409l72.319,-12.633c15.176,-2.647 26.182,-15.747 26.182,-31.154c0,-14.072 -9.452,-26.577 -22.989,-30.42l-96.987,-27.522c-28.356,22.82 -63.333,36.688 -98.971,36.688l-0.006,0c-7.285,0 -14.576,-0.6 -21.672,-1.772c-78.875,-13.1 -150.993,-37.632 -186.961,-51.084c-134.318,-50.24 -242.55,-137.019 -321.686,-257.932c-81.995,-125.279 -112.615,-256.767 -123.864,-345.009c-29.551,-231.829 -42.384,-348.638 -42.512,-349.792l-1.202,-10.969l175.937,-36.424l677.963,909.974Z" style="fill:#fff;fill-rule:nonzero;stroke:#000;stroke-width:8.33px;"/></g><path d="M246.869,409.176c0.054,-33.455 22.285,-62.794 54.465,-71.925l490.119,-138.997c24.46,-7.806 50.116,-2.454 69.101,12.297c10.425,8.101 18.839,19.035 23.937,32.182l34.632,209.374c35.343,213.677 101.112,402.745 287.873,512.428c186.645,109.616 383.344,137.924 442.028,147.952c40.187,6.866 76.113,31.931 103.885,65.295c35.647,42.828 54.478,97.19 55.929,152.893l1.159,44.297l-489.367,9.149c-107.837,1.991 -215.687,-3.339 -322.802,-15.948l-846.34,-105.706c-13.665,-151.692 6.01,-292.401 57.64,-435.691c24.537,-68.088 37.176,-139.848 37.352,-212.221c0.152,-60.22 0.304,-148.316 0.389,-205.379" style="fill:none;fill-rule:nonzero;stroke:#131313;stroke-width:8.33px;"/><path d="M861.431,320.075c0.31,16.5 -12.815,30.122 -29.315,30.425c-16.5,0.304 -30.122,-12.821 -30.425,-29.314c-0.31,-16.5 12.821,-30.122 29.314,-30.426c16.5,-0.31 30.122,12.815 30.426,29.315" style="fill:none;fill-rule:nonzero;stroke:#000;stroke-width:8.33px;"/><path d="M876.605,483.519c0.31,16.494 -12.821,30.116 -29.315,30.426c-16.5,0.304 -30.122,-12.821 -30.425,-29.315c-0.31,-16.5 12.814,-30.122 29.314,-30.425c16.5,-0.31 30.116,12.815 30.426,29.314" style="fill:none;fill-rule:nonzero;stroke:#000;stroke-width:8.33px;"/><path d="M903.686,634.719c0.309,16.494 -12.821,30.116 -29.315,30.426c-16.5,0.303 -30.122,-12.821 -30.426,-29.315c-0.309,-16.5 12.815,-30.122 29.315,-30.426c16.5,-0.309 30.122,12.815 30.426,29.315" style="fill:none;fill-rule:nonzero;stroke:#000;stroke-width:8.33px;"/><path d="M960.758,767.043c0.303,16.5 -12.821,30.122 -29.315,30.426c-16.5,0.304 -30.122,-12.815 -30.426,-29.315c-0.309,-16.5 12.821,-30.122 29.315,-30.425c16.5,-0.31 30.122,12.821 30.426,29.314" style="fill:none;fill-rule:nonzero;stroke:#000;stroke-width:8.33px;"/><path d="M1038.33,865.042c10.332,12.863 8.281,31.67 -4.583,42.002c-12.863,10.332 -31.67,8.28 -42.002,-4.583c-10.332,-12.864 -8.28,-31.67 4.583,-42.003c12.864,-10.332 31.67,-8.28 42.002,4.584" style="fill:none;fill-rule:nonzero;stroke:#000;stroke-width:8.33px;"/><path d="M1133.66,962.351c10.332,12.864 8.28,31.67 -4.583,42.002c-12.864,10.332 -31.67,8.281 -42.002,-4.583c-10.333,-12.863 -8.281,-31.67 4.583,-42.002c12.863,-10.332 31.67,-8.28 42.002,4.583" style="fill:none;fill-rule:nonzero;stroke:#000;stroke-width:8.33px;"/><path d="M1253.67,1032.29c10.332,12.864 8.28,31.671 -4.583,42.003c-12.864,10.332 -31.671,8.28 -42.003,-4.584c-10.332,-12.863 -8.28,-31.67 4.584,-42.002c12.863,-10.332 31.67,-8.28 42.002,4.583" style="fill:none;fill-rule:nonzero;stroke:#000;stroke-width:8.33px;"/><path d="M1388.02,1084.18c10.332,12.864 8.28,31.671 -4.583,42.003c-12.864,10.332 -31.67,8.28 -42.002,-4.584c-10.332,-12.863 -8.281,-31.67 4.583,-42.002c12.863,-10.332 31.67,-8.28 42.002,4.583" style="fill:none;fill-rule:nonzero;stroke:#000;stroke-width:8.33px;"/><path d="M833.179,322.341l139.544,-0" style="fill:none;fill-rule:nonzero;stroke:#000;stroke-width:16.67px;stroke-linecap:round;stroke-linejoin:miter;stroke-miterlimit:10;"/><path d="M845.314,486.152l133.473,-0" style="fill:none;fill-rule:nonzero;stroke:#000;stroke-width:16.67px;stroke-linecap:round;stroke-linejoin:miter;stroke-miterlimit:10;"/><path d="M873.355,635.273l109.21,0" style="fill:none;fill-rule:nonzero;stroke:#000;stroke-width:16.67px;stroke-linecap:round;stroke-linejoin:miter;stroke-miterlimit:10;"/><path d="M930.102,767.599l109.209,-0" style="fill:none;fill-rule:nonzero;stroke:#000;stroke-width:16.67px;stroke-linecap:round;stroke-linejoin:miter;stroke-miterlimit:10;"/><path d="M1013.76,883.751l109.21,0" style="fill:none;fill-rule:nonzero;stroke:#000;stroke-width:16.67px;stroke-linecap:round;stroke-linejoin:miter;stroke-miterlimit:10;"/><path d="M1109.91,980.596l103.139,-24.271" style="fill:none;fill-rule:nonzero;stroke:#000;stroke-width:16.67px;stroke-linecap:round;stroke-linejoin:miter;stroke-miterlimit:10;"/><path d="M1225.19,1051l91.003,-42.469" style="fill:none;fill-rule:nonzero;stroke:#000;stroke-width:16.67px;stroke-linecap:round;stroke-linejoin:miter;stroke-miterlimit:10;"/><path d="M1364.73,1105.6l24.27,-54.605" style="fill:none;fill-rule:nonzero;stroke:#000;stroke-width:16.67px;stroke-linecap:round;stroke-linejoin:miter;stroke-miterlimit:10;"/></g></svg>